<svg xmlns="http://www.w3.org/2000/svg" width="1920" height="1080"><path d="M858,506L1017,687L1007,327Z" fill="#108695" stroke="#108695" stroke-width="1.51"/><path d="M1017,687L1238,321L1007,327Z" fill="#108695" stroke="#108695" stroke-width="1.51"/><path d="M1238,321L1188,264L1007,327Z" fill="#108695" stroke="#108695" stroke-width="1.51"/><path d="M1017,687L1393,686L1238,321Z" fill="#108894" stroke="#108894" stroke-width="1.51"/><path d="M858,506L733,704L1017,687Z" fill="#108795" stroke="#108795" stroke-width="1.51"/><path d="M1017,687L1117,867L1266,786Z" fill="#108a94" stroke="#108a94" stroke-width="1.51"/><path d="M908,907L1117,867L1017,687Z" fill="#108a94" stroke="#108a94" stroke-width="1.51"/><path d="M1266,786L1393,686L1017,687Z" fill="#108a94" stroke="#108a94" stroke-width="1.51"/><path d="M733,704L908,907L1017,687Z" fill="#108895" stroke="#108895" stroke-width="1.51"/><path d="M1383,103L1183,77L1188,264Z" fill="#108595" stroke="#108595" stroke-width="1.51"/><path d="M1188,264L1183,77L1007,327Z" fill="#108595" stroke="#108595" stroke-width="1.51"/><path d="M1007,327L636,299L858,506Z" fill="#108595" stroke="#108595" stroke-width="1.51"/><path d="M1383,103L1188,264L1238,321Z" fill="#108695" stroke="#108695" stroke-width="1.51"/><path d="M858,506L554,571L733,704Z" fill="#108695" stroke="#108695" stroke-width="1.51"/><path d="M848,94L636,299L1007,327Z" fill="#108495" stroke="#108495" stroke-width="1.51"/><path d="M1183,77L848,94L1007,327Z" fill="#108495" stroke="#108495" stroke-width="1.51"/><path d="M1393,686L1473,650L1238,321Z" fill="#108994" stroke="#108994" stroke-width="1.51"/><path d="M1444,952L1473,650L1393,686Z" fill="#108b94" stroke="#108b94" stroke-width="1.51"/><path d="M1473,650L1466,281L1238,321Z" fill="#108895" stroke="#108895" stroke-width="1.51"/><path d="M733,704L653,933L908,907Z" fill="#108895" stroke="#108895" stroke-width="1.51"/><path d="M636,299L554,571L858,506Z" fill="#108595" stroke="#108595" stroke-width="1.51"/><path d="M1466,281L1383,103L1238,321Z" fill="#108695" stroke="#108695" stroke-width="1.51"/><path d="M554,571L653,933L733,704Z" fill="#108795" stroke="#108795" stroke-width="1.51"/><path d="M636,299L506,529L554,571Z" fill="#108495" stroke="#108495" stroke-width="1.51"/><path d="M848,94L692,78L636,299Z" fill="#108295" stroke="#108295" stroke-width="1.51"/><path d="M636,299L436,483L506,529Z" fill="#108395" stroke="#108395" stroke-width="1.51"/><path d="M909,-79L692,78L848,94Z" fill="#108295" stroke="#108295" stroke-width="1.51"/><path d="M346,868L653,933L554,571Z" fill="#108695" stroke="#108695" stroke-width="1.51"/><path d="M1466,281L1467,47L1383,103Z" fill="#108695" stroke="#108695" stroke-width="1.51"/><path d="M1473,650L1616,405L1466,281Z" fill="#108995" stroke="#108995" stroke-width="1.51"/><path d="M1183,77L909,-79L848,94Z" fill="#108395" stroke="#108395" stroke-width="1.51"/><path d="M1155,-264L909,-79L1183,77Z" fill="#108295" stroke="#108295" stroke-width="1.51"/><path d="M1266,786L1444,952L1393,686Z" fill="#108b94" stroke="#108b94" stroke-width="1.51"/><path d="M1473,650L1688,689L1616,405Z" fill="#108b94" stroke="#108b94" stroke-width="1.51"/><path d="M1117,867L1444,952L1266,786Z" fill="#108b94" stroke="#108b94" stroke-width="1.51"/><path d="M1123,1187L1444,952L1117,867Z" fill="#108c94" stroke="#108c94" stroke-width="1.51"/><path d="M957,1132L1117,867L908,907Z" fill="#108a94" stroke="#108a94" stroke-width="1.51"/><path d="M414,136L436,483L636,299Z" fill="#108295" stroke="#108295" stroke-width="1.51"/><path d="M506,529L303,769L554,571Z" fill="#108595" stroke="#108595" stroke-width="1.51"/><path d="M1383,103L1291,-69L1183,77Z" fill="#118595" stroke="#118595" stroke-width="1.51"/><path d="M1824,148L1467,47L1466,281Z" fill="#118795" stroke="#118795" stroke-width="1.51"/><path d="M1467,47L1291,-69L1383,103Z" fill="#118595" stroke="#118595" stroke-width="1.51"/><path d="M653,933L957,1132L908,907Z" fill="#108a95" stroke="#108a95" stroke-width="1.51"/><path d="M1444,952L1688,689L1473,650Z" fill="#108c94" stroke="#108c94" stroke-width="1.51"/><path d="M957,1132L1123,1187L1117,867Z" fill="#108b94" stroke="#108b94" stroke-width="1.51"/><path d="M416,-148L414,136L692,78Z" fill="#108095" stroke="#108095" stroke-width="1.51"/><path d="M692,78L414,136L636,299Z" fill="#108295" stroke="#108295" stroke-width="1.51"/><path d="M909,-79L464,-240L692,78Z" fill="#108095" stroke="#108095" stroke-width="1.51"/><path d="M1291,-69L1155,-264L1183,77Z" fill="#118395" stroke="#118395" stroke-width="1.51"/><path d="M1284,-247L1155,-264L1291,-69Z" fill="#118295" stroke="#118295" stroke-width="1.51"/><path d="M1444,952L1780,985L1688,689Z" fill="#108d94" stroke="#108d94" stroke-width="1.51"/><path d="M1123,1187L1405,1195L1444,952Z" fill="#108d94" stroke="#108d94" stroke-width="1.51"/><path d="M223,838L303,769L142,570Z" fill="#108495" stroke="#108495" stroke-width="1.51"/><path d="M436,483L303,769L506,529Z" fill="#108495" stroke="#108495" stroke-width="1.51"/><path d="M653,933L602,1284L957,1132Z" fill="#108a95" stroke="#108a95" stroke-width="1.51"/><path d="M303,769L346,868L554,571Z" fill="#108595" stroke="#108595" stroke-width="1.51"/><path d="M1448,-185L1284,-247L1291,-69Z" fill="#118395" stroke="#118395" stroke-width="1.51"/><path d="M1467,47L1448,-185L1291,-69Z" fill="#118495" stroke="#118495" stroke-width="1.51"/><path d="M1747,-71L1448,-185L1467,47Z" fill="#118595" stroke="#118595" stroke-width="1.51"/><path d="M1616,405L1824,148L1466,281Z" fill="#108895" stroke="#108895" stroke-width="1.51"/><path d="M1688,689L1854,494L1616,405Z" fill="#108b95" stroke="#108b95" stroke-width="1.51"/><path d="M1909,820L1854,494L1688,689Z" fill="#108c94" stroke="#108c94" stroke-width="1.51"/><path d="M1037,1411L1342,1285L1123,1187Z" fill="#108e94" stroke="#108e94" stroke-width="1.51"/><path d="M1123,1187L1342,1285L1405,1195Z" fill="#108e94" stroke="#108e94" stroke-width="1.51"/><path d="M1602,1443L1622,1107L1405,1195Z" fill="#109094" stroke="#109094" stroke-width="1.51"/><path d="M1405,1195L1622,1107L1444,952Z" fill="#108e94" stroke="#108e94" stroke-width="1.51"/><path d="M1155,-264L869,-324L909,-79Z" fill="#118195" stroke="#118195" stroke-width="1.51"/><path d="M2053,-370L869,-324L1155,-264Z" fill="#118295" stroke="#118295" stroke-width="1.51"/><path d="M1888,318L1824,148L1616,405Z" fill="#118995" stroke="#118995" stroke-width="1.51"/><path d="M1854,494L1888,318L1616,405Z" fill="#108a95" stroke="#108a95" stroke-width="1.51"/><path d="M298,1089L547,1228L653,933Z" fill="#118995" stroke="#118995" stroke-width="1.51"/><path d="M957,1132L1037,1411L1123,1187Z" fill="#108d94" stroke="#108d94" stroke-width="1.51"/><path d="M1622,1107L1780,985L1444,952Z" fill="#108e94" stroke="#108e94" stroke-width="1.51"/><path d="M1854,494L2046,620L1888,318Z" fill="#118c95" stroke="#118c95" stroke-width="1.51"/><path d="M346,868L298,1089L653,933Z" fill="#118795" stroke="#118795" stroke-width="1.51"/><path d="M303,769L223,838L346,868Z" fill="#118695" stroke="#118695" stroke-width="1.51"/><path d="M142,570L303,769L436,483Z" fill="#108495" stroke="#108495" stroke-width="1.51"/><path d="M547,1228L602,1284L653,933Z" fill="#118a95" stroke="#118a95" stroke-width="1.51"/><path d="M118,338L142,570L436,483Z" fill="#108295" stroke="#108295" stroke-width="1.51"/><path d="M464,-240L416,-148L692,78Z" fill="#107f95" stroke="#107f95" stroke-width="1.51"/><path d="M414,136L118,338L436,483Z" fill="#108195" stroke="#108195" stroke-width="1.51"/><path d="M874,1433L1037,1411L957,1132Z" fill="#118d94" stroke="#118d94" stroke-width="1.51"/><path d="M1888,159L1747,-71L1824,148Z" fill="#118795" stroke="#118795" stroke-width="1.51"/><path d="M1824,148L1747,-71L1467,47Z" fill="#118795" stroke="#118795" stroke-width="1.51"/><path d="M1888,318L1888,159L1824,148Z" fill="#118995" stroke="#118995" stroke-width="1.51"/><path d="M1780,985L1909,820L1688,689Z" fill="#108e94" stroke="#108e94" stroke-width="1.51"/><path d="M2239,96L2123,-23L1888,159Z" fill="#128994" stroke="#128994" stroke-width="1.51"/><path d="M129,91L118,338L414,136Z" fill="#108095" stroke="#108095" stroke-width="1.51"/><path d="M602,1284L874,1433L957,1132Z" fill="#118c94" stroke="#118c94" stroke-width="1.51"/><path d="M143,-47L129,91L414,136Z" fill="#107f95" stroke="#107f95" stroke-width="1.51"/><path d="M520,-332L464,-240L909,-79Z" fill="#107f96" stroke="#107f96" stroke-width="1.51"/><path d="M203,1091L298,1089L223,838Z" fill="#118795" stroke="#118795" stroke-width="1.51"/><path d="M223,838L298,1089L346,868Z" fill="#118695" stroke="#118695" stroke-width="1.51"/><path d="M547,1228L476,1335L602,1284Z" fill="#118a94" stroke="#118a94" stroke-width="1.51"/><path d="M869,-324L520,-332L909,-79Z" fill="#117f96" stroke="#117f96" stroke-width="1.51"/><path d="M1622,1107L1808,1135L1780,985Z" fill="#108f94" stroke="#108f94" stroke-width="1.51"/><path d="M1780,985L2036,1087L1909,820Z" fill="#108f94" stroke="#108f94" stroke-width="1.51"/><path d="M1832,1372L1808,1135L1622,1107Z" fill="#109194" stroke="#109194" stroke-width="1.51"/><path d="M1602,1443L1405,1195L1342,1285Z" fill="#108f94" stroke="#108f94" stroke-width="1.51"/><path d="M143,-47L416,-148L234,-335Z" fill="#107d95" stroke="#107d95" stroke-width="1.51"/><path d="M143,-47L414,136L416,-148Z" fill="#107f95" stroke="#107f95" stroke-width="1.51"/><path d="M298,1089L476,1335L547,1228Z" fill="#118995" stroke="#118995" stroke-width="1.51"/><path d="M602,1284L476,1335L874,1433Z" fill="#118c94" stroke="#118c94" stroke-width="1.51"/><path d="M2157,622L2046,620L2154,970Z" fill="#108f94" stroke="#108f94" stroke-width="1.51"/><path d="M1909,820L2046,620L1854,494Z" fill="#108d94" stroke="#108d94" stroke-width="1.51"/><path d="M298,1089L52,1316L476,1335Z" fill="#118995" stroke="#118995" stroke-width="1.51"/><path d="M3,982L203,1091L223,838Z" fill="#118695" stroke="#118695" stroke-width="1.51"/><path d="M129,91L30,354L118,338Z" fill="#108095" stroke="#108095" stroke-width="1.51"/><path d="M118,338L30,354L142,570Z" fill="#108195" stroke="#108195" stroke-width="1.51"/><path d="M142,570L-90,602L223,838Z" fill="#108395" stroke="#108395" stroke-width="1.51"/><path d="M129,91L-154,295L30,354Z" fill="#107f95" stroke="#107f95" stroke-width="1.51"/><path d="M234,-335L416,-148L464,-240Z" fill="#107d96" stroke="#107d96" stroke-width="1.51"/><path d="M1747,-71L1861,-185L1448,-185Z" fill="#118595" stroke="#118595" stroke-width="1.51"/><path d="M1448,-185L2053,-370L1284,-247Z" fill="#128495" stroke="#128495" stroke-width="1.51"/><path d="M1284,-247L2053,-370L1155,-264Z" fill="#128395" stroke="#128395" stroke-width="1.51"/><path d="M1888,159L1861,-185L1747,-71Z" fill="#118795" stroke="#118795" stroke-width="1.51"/><path d="M2123,-23L1861,-185L1888,159Z" fill="#118895" stroke="#118895" stroke-width="1.51"/><path d="M874,1433L1602,1443L1037,1411Z" fill="#118f94" stroke="#118f94" stroke-width="1.51"/><path d="M1037,1411L1602,1443L1342,1285Z" fill="#109094" stroke="#109094" stroke-width="1.51"/><path d="M2046,620L2292,320L1888,318Z" fill="#118c94" stroke="#118c94" stroke-width="1.51"/><path d="M2154,970L2046,620L1909,820Z" fill="#108f94" stroke="#108f94" stroke-width="1.51"/><path d="M2036,1087L1780,985L1808,1135Z" fill="#109094" stroke="#109094" stroke-width="1.51"/><path d="M-154,295L-90,602L30,354Z" fill="#108095" stroke="#108095" stroke-width="1.51"/><path d="M30,354L-90,602L142,570Z" fill="#108195" stroke="#108195" stroke-width="1.51"/><path d="M-90,602L3,982L223,838Z" fill="#118495" stroke="#118495" stroke-width="1.51"/><path d="M203,1091L52,1316L298,1089Z" fill="#118895" stroke="#118895" stroke-width="1.51"/><path d="M1832,1372L2036,1087L1808,1135Z" fill="#109194" stroke="#109194" stroke-width="1.51"/><path d="M520,-332L234,-335L464,-240Z" fill="#107d96" stroke="#107d96" stroke-width="1.51"/><path d="M-182,-118L-154,295L129,91Z" fill="#107e95" stroke="#107e95" stroke-width="1.51"/><path d="M1602,1443L1832,1372L1622,1107Z" fill="#109194" stroke="#109194" stroke-width="1.51"/><path d="M2239,96L1888,159L1888,318Z" fill="#118995" stroke="#118995" stroke-width="1.51"/><path d="M2190,1016L2154,970L2036,1087Z" fill="#109194" stroke="#109194" stroke-width="1.51"/><path d="M2036,1087L2154,970L1909,820Z" fill="#109094" stroke="#109094" stroke-width="1.51"/><path d="M-182,-118L129,91L143,-47Z" fill="#107d95" stroke="#107d95" stroke-width="1.51"/><path d="M2123,-23L2103,-102L1861,-185Z" fill="#128895" stroke="#128895" stroke-width="1.51"/><path d="M2154,970L2190,1016L2157,622Z" fill="#109094" stroke="#109094" stroke-width="1.51"/><path d="M2157,622L2292,320L2046,620Z" fill="#118d94" stroke="#118d94" stroke-width="1.51"/><path d="M2123,1402L2190,1016L2036,1087Z" fill="#109294" stroke="#109294" stroke-width="1.51"/><path d="M2123,-23L2270,-176L2103,-102Z" fill="#128894" stroke="#128894" stroke-width="1.51"/><path d="M2190,1016L2292,320L2157,622Z" fill="#118f94" stroke="#118f94" stroke-width="1.51"/><path d="M2292,320L2239,96L1888,318Z" fill="#118b94" stroke="#118b94" stroke-width="1.51"/><path d="M-173,1179L52,1316L3,982Z" fill="#128695" stroke="#128695" stroke-width="1.51"/><path d="M3,982L52,1316L203,1091Z" fill="#118795" stroke="#118795" stroke-width="1.51"/><path d="M476,1335L-158,1455L874,1433Z" fill="#128b94" stroke="#128b94" stroke-width="1.51"/><path d="M-173,1179L3,982L-418,869Z" fill="#128495" stroke="#128495" stroke-width="1.51"/><path d="M1861,-185L2053,-370L1448,-185Z" fill="#128595" stroke="#128595" stroke-width="1.51"/><path d="M869,-324L2053,-370L520,-332Z" fill="#118195" stroke="#118195" stroke-width="1.51"/><path d="M520,-332L2053,-370L234,-335Z" fill="#118096" stroke="#118096" stroke-width="1.51"/><path d="M2103,-102L2053,-370L1861,-185Z" fill="#128695" stroke="#128695" stroke-width="1.51"/><path d="M2270,-176L2053,-370L2103,-102Z" fill="#128795" stroke="#128795" stroke-width="1.51"/><path d="M1832,1372L2063,1407L2036,1087Z" fill="#109294" stroke="#109294" stroke-width="1.51"/><path d="M1602,1443L2063,1407L1832,1372Z" fill="#109294" stroke="#109294" stroke-width="1.51"/><path d="M-143,-238L-182,-118L143,-47Z" fill="#107c95" stroke="#107c95" stroke-width="1.51"/><path d="M-353,427L-90,602L-154,295Z" fill="#117f96" stroke="#117f96" stroke-width="1.51"/><path d="M-351,707L3,982L-90,602Z" fill="#118395" stroke="#118395" stroke-width="1.51"/><path d="M-371,181L-353,427L-154,295Z" fill="#107e96" stroke="#107e96" stroke-width="1.51"/><path d="M234,-335L-143,-238L143,-47Z" fill="#107c96" stroke="#107c96" stroke-width="1.51"/><path d="M2063,1407L2123,1402L2036,1087Z" fill="#109393" stroke="#109393" stroke-width="1.51"/><path d="M-353,427L-351,707L-90,602Z" fill="#118195" stroke="#118195" stroke-width="1.51"/><path d="M2239,96L2270,-176L2123,-23Z" fill="#128994" stroke="#128994" stroke-width="1.51"/><path d="M2292,320L2270,-176L2239,96Z" fill="#128a94" stroke="#128a94" stroke-width="1.51"/><path d="M-353,427L-418,869L-351,707Z" fill="#118195" stroke="#118195" stroke-width="1.51"/><path d="M-327,-18L-371,181L-154,295Z" fill="#107d96" stroke="#107d96" stroke-width="1.51"/><path d="M-327,-18L-154,295L-182,-118Z" fill="#107c96" stroke="#107c96" stroke-width="1.51"/><path d="M-257,1207L-207,1262L-173,1179Z" fill="#128695" stroke="#128695" stroke-width="1.51"/><path d="M-173,1179L-207,1262L52,1316Z" fill="#128795" stroke="#128795" stroke-width="1.51"/><path d="M-272,-196L-327,-18L-182,-118Z" fill="#107b96" stroke="#107b96" stroke-width="1.51"/><path d="M-418,869L-257,1207L-173,1179Z" fill="#128595" stroke="#128595" stroke-width="1.51"/><path d="M-143,-238L-272,-196L-182,-118Z" fill="#107a96" stroke="#107a96" stroke-width="1.51"/><path d="M-351,707L-418,869L3,982Z" fill="#118395" stroke="#118395" stroke-width="1.51"/><path d="M-371,181L-418,869L-353,427Z" fill="#117f96" stroke="#117f96" stroke-width="1.51"/><path d="M52,1316L-158,1455L476,1335Z" fill="#128994" stroke="#128994" stroke-width="1.51"/><path d="M874,1433L-158,1455L1602,1443Z" fill="#118d94" stroke="#118d94" stroke-width="1.51"/><path d="M-207,1262L-158,1455L52,1316Z" fill="#128794" stroke="#128794" stroke-width="1.51"/><path d="M-257,1207L-158,1455L-207,1262Z" fill="#138695" stroke="#138695" stroke-width="1.51"/><path d="M-418,869L-158,1455L-257,1207Z" fill="#128595" stroke="#128595" stroke-width="1.51"/></svg>